<mxfile host="app.diagrams.net" modified="2023-10-09T18:37:49.131Z" agent="Mozilla/5.0 (Macintosh; Intel Mac OS X 10_15_7) AppleWebKit/605.1.15 (KHTML, like Gecko) Version/16.6 Safari/605.1.15" etag="a-bf8SAR9fKWL-mzqkxL" version="22.0.4" type="github">
  <diagram name="Page-1" id="TuzbkHZJlrXlbozX7Xlt">
    <mxGraphModel dx="606" dy="552" grid="1" gridSize="10" guides="1" tooltips="1" connect="1" arrows="1" fold="1" page="1" pageScale="1" pageWidth="850" pageHeight="1100" math="0" shadow="0">
      <root>
        <mxCell id="0" />
        <mxCell id="1" parent="0" />
        <mxCell id="JMQ2ScD6qQ5YHZ6In4Vd-1" value="" style="endArrow=classic;startArrow=classic;html=1;rounded=0;" edge="1" parent="1">
          <mxGeometry width="50" height="50" relative="1" as="geometry">
            <mxPoint x="280" y="440" as="sourcePoint" />
            <mxPoint x="280" y="120" as="targetPoint" />
          </mxGeometry>
        </mxCell>
        <mxCell id="JMQ2ScD6qQ5YHZ6In4Vd-2" value="" style="endArrow=classic;startArrow=classic;html=1;rounded=0;" edge="1" parent="1">
          <mxGeometry width="50" height="50" relative="1" as="geometry">
            <mxPoint x="40" y="280" as="sourcePoint" />
            <mxPoint x="520" y="280" as="targetPoint" />
          </mxGeometry>
        </mxCell>
        <mxCell id="JMQ2ScD6qQ5YHZ6In4Vd-4" value="" style="endArrow=none;html=1;rounded=0;strokeWidth=2.3;" edge="1" parent="1">
          <mxGeometry width="50" height="50" relative="1" as="geometry">
            <mxPoint x="240" y="280" as="sourcePoint" />
            <mxPoint x="320" y="280" as="targetPoint" />
          </mxGeometry>
        </mxCell>
        <mxCell id="JMQ2ScD6qQ5YHZ6In4Vd-8" value="" style="shape=image;verticalLabelPosition=bottom;labelBackgroundColor=none;verticalAlign=top;aspect=fixed;imageAspect=0;image=data:image/png,iVBORw0KGgoAAAANSUhEUgAAAF4AAABKCAYAAAAylePjAAAMP2lDQ1BJQ0MgUHJvZmlsZQAASImVVwdYU8kWnltSIbQAAlJCb4JIDSAlhBZ6RxCVkAQIJcZAULGjiwquXSxgQ1dFFKyAWFDEzqLY+2JBRVkXC3blTQrouq98b75v7vz3nzP/OXPuzL13AFA/zhWL81ANAPJFhZK4kADGmJRUBukpIAN9oAJMAYXLKxCzYmIiACyD7d/Lu+sAkbVXHGRa/+z/r0WTLyjgAYDEQJzBL+DlQ3wAALyKJ5YUAkCU8eaTC8UyDCvQlsAAIV4gw1kKXCXDGQq8R26TEMeGuA0AsiqXK8kCQO0S5BlFvCyoodYHsZOILxQBoM6A2Dc/fyIf4nSIbaCNGGKZPjPjB52sv2lmDGlyuVlDWDEXeSEHCgvEedyp/2c6/nfJz5MO+rCCVTVbEhonmzPM283cieEyrApxrygjKhpiLYg/CPlye4hRarY0NFFhjxryCtgwZ0AXYic+NzAcYkOIg0V5URFKPiNTGMyBGK4QdIqwkJMAsR7ECwQFQfFKm02SiXFKX2hDpoTNUvJnuRK5X5mv+9LcRJZS/3W2gKPUx9SKsxOSIaZCbFEkTIqCWA1ix4Lc+HClzejibHbUoI1EGieL3wLiOIEoJEChjxVlSoLjlPZl+QWD88U2ZQs5UUq8rzA7IVSRH6yNx5XHD+eCXRKIWImDOoKCMRGDc+ELAoMUc8eeCUSJ8UqdD+LCgDjFWJwqzotR2uNmgrwQGW8GsWtBUbxyLJ5UCBekQh/PFBfGJCjixItzuGExinjwpSACsEEgYAAprBlgIsgBwo7exl54p+gJBlwgAVlAAByUzOCIZHmPCF7jQTH4EyIBKBgaFyDvFYAiyH8dYhVXB5Ap7y2Sj8gFTyDOB+EgD95L5aNEQ96SwGPICP/hnQsrD8abB6us/9/zg+x3hgWZCCUjHfTIUB+0JAYRA4mhxGCiLW6A++LeeAS8+sPqjDNxz8F5fLcnPCF0Eh4SrhG6CLcmCEskP0UZCbqgfrAyFxk/5gK3gppueADuA9WhMq6LGwAH3BX6YeF+0LMbZNnKuGVZYfyk/bcZ/PA0lHYUJwpKGUbxp9j8PFLNTs1tSEWW6x/zo4g1Yyjf7KGen/2zf8g+H7bhP1tiC7D92BnsBHYOO4I1AgbWgjVh7dhRGR5aXY/lq2vQW5w8nlyoI/yHv8EnK8tkgVOtU4/TF0VfoWCK7B0N2BPFUyXCrOxCBgt+EQQMjojnOILh7OTsAoDs+6J4fb2JlX83EN3279zcPwDwaRkYGDj8nQtrAWCvB9z+h75zNkz46VAB4OwhnlRSpOBw2YUA3xLqcKfpA2NgDmzgfJyBO/AG/iAIhIFokABSwHgYfTZc5xIwGUwHc0ApKAdLwSqwDmwEW8AOsBvsA43gCDgBToML4BK4Bu7A1dMNXoA+8A58RhCEhNAQOqKPmCCWiD3ijDARXyQIiUDikBQkHclCRIgUmY7MRcqR5cg6ZDNSg+xFDiEnkHNIJ3ILeYD0IK+RTyiGqqLaqBFqhY5EmSgLDUcT0HFoFjoJLUbnoYvRNWg1ugttQE+gF9BraBf6Au3HAKaC6WKmmAPGxNhYNJaKZWISbCZWhlVg1Vgd1gyf8xWsC+vFPuJEnI4zcAe4gkPxRJyHT8Jn4ovwdfgOvAFvw6/gD/A+/BuBRjAk2BO8CBzCGEIWYTKhlFBB2EY4SDgF91I34R2RSNQlWhM94F5MIeYQpxEXEdcT64nHiZ3ER8R+EomkT7In+ZCiSVxSIamUtJa0i9RCukzqJn0gq5BNyM7kYHIqWUQuIVeQd5KPkS+Tn5I/UzQolhQvSjSFT5lKWULZSmmmXKR0Uz5TNanWVB9qAjWHOoe6hlpHPUW9S32joqJipuKpEqsiVJmtskZlj8pZlQcqH1W1VO1U2appqlLVxarbVY+r3lJ9Q6PRrGj+tFRaIW0xrYZ2knaf9kGNruaoxlHjq81Sq1RrULus9lKdom6pzlIfr16sXqG+X/2ieq8GRcNKg63B1ZipUalxSOOGRr8mXXOUZrRmvuYizZ2a5zSfaZG0rLSCtPha87S2aJ3UekTH6OZ0Np1Hn0vfSj9F79Ymaltrc7RztMu1d2t3aPfpaOm46iTpTNGp1Dmq06WL6VrpcnTzdJfo7tO9rvtpmNEw1jDBsIXD6oZdHvZeb7iev55Ar0yvXu+a3id9hn6Qfq7+Mv1G/XsGuIGdQazBZIMNBqcMeodrD/cezhteNnzf8NuGqKGdYZzhNMMthu2G/UbGRiFGYqO1RieNeo11jf2Nc4xXGh8z7jGhm/iaCE1WmrSYPGfoMFiMPMYaRhujz9TQNNRUarrZtMP0s5m1WaJZiVm92T1zqjnTPNN8pXmreZ+FiUWkxXSLWovblhRLpmW25WrLM5bvraytkq3mWzVaPbPWs+ZYF1vXWt+1odn42Uyyqba5aku0Zdrm2q63vWSH2rnZZdtV2l20R+3d7YX26+07RxBGeI4QjageccNB1YHlUORQ6/DAUdcxwrHEsdHx5UiLkakjl408M/Kbk5tTntNWpzujtEaFjSoZ1TzqtbOdM8+50vmqC80l2GWWS5PLK1d7V4HrBtebbnS3SLf5bq1uX9093CXude49HhYe6R5VHjeY2swY5iLmWU+CZ4DnLM8jnh+93L0KvfZ5/eXt4J3rvdP72Wjr0YLRW0c/8jHz4fps9unyZfim+27y7fIz9eP6Vfs99Df35/tv83/KsmXlsHaxXgY4BUgCDga8Z3uxZ7CPB2KBIYFlgR1BWkGJQeuC7gebBWcF1wb3hbiFTAs5HkoIDQ9dFnqDY8ThcWo4fWEeYTPC2sJVw+PD14U/jLCLkEQ0R6KRYZErIu9GWUaJohqjQTQnekX0vRjrmEkxh2OJsTGxlbFP4kbFTY87E0+PnxC/M/5dQkDCkoQ7iTaJ0sTWJPWktKSapPfJgcnLk7vGjBwzY8yFFIMUYUpTKik1KXVbav/YoLGrxnanuaWVpl0fZz1uyrhz4w3G540/OkF9AnfC/nRCenL6zvQv3GhuNbc/g5NRldHHY/NW817w/fkr+T0CH8FywdNMn8zlmc+yfLJWZPVk+2VXZPcK2cJ1wlc5oTkbc97nRuduzx3IS86rzyfnp+cfEmmJckVtE40nTpnYKbYXl4q7JnlNWjWpTxIu2VaAFIwraCrUhj/y7VIb6S/SB0W+RZVFHyYnTd4/RXOKaEr7VLupC6c+LQ4u/m0aPo03rXW66fQ50x/MYM3YPBOZmTGzdZb5rHmzumeHzN4xhzond87vJU4ly0vezk2e2zzPaN7seY9+CfmltlStVFJ6Y773/I0L8AXCBR0LXRauXfitjF92vtypvKL8yyLeovO/jvp1za8DizMXdyxxX7JhKXGpaOn1ZX7LdizXXF68/NGKyBUNKxkry1a+XTVh1bkK14qNq6mrpau71kSsaVprsXbp2i/rstddqwyorK8yrFpY9X49f/3lDf4b6jYabSzf+GmTcNPNzSGbG6qtqiu2ELcUbXmyNWnrmd+Yv9VsM9hWvu3rdtH2rh1xO9pqPGpqdhruXFKL1kpre3al7bq0O3B3U51D3eZ63fryPWCPdM/zvel7r+8L39e6n7m/7oDlgaqD9INlDUjD1Ia+xuzGrqaUps5DYYdam72bDx52PLz9iOmRyqM6R5ccox6bd2ygpbil/7j4eO+JrBOPWie03jk55uTVtti2jlPhp86eDj598gzrTMtZn7NHznmdO3Seeb7xgvuFhna39oO/u/1+sMO9o+Gix8WmS56XmjtHdx677Hf5xJXAK6evcq5euBZ1rfN64vWbN9JudN3k33x2K+/Wq9tFtz/fmX2XcLfsnsa9ivuG96v/sP2jvsu96+iDwAftD+Mf3nnEe/TiccHjL93zntCeVDw1eVrzzPnZkZ7gnkvPxz7vfiF+8bm39E/NP6te2rw88Jf/X+19Y/q6X0leDbxe9Eb/zfa3rm9b+2P677/Lf/f5fdkH/Q87PjI/nvmU/Onp58lfSF/WfLX92vwt/NvdgfyBATFXwpX/CmCwopmZALzeDgAtBQA6PJ9RxyrOf/KCKM6scgT+E1acEeXFHYA6+P8e2wv/bm4AsGcrPH5BffU0AGJoACR4AtTFZagOntXk50pZIcJzwKaQrxn5GeDfFMWZ84e4f26BTNUV/Nz+C7EifFdeT1v1AAAAbGVYSWZNTQAqAAAACAAEARoABQAAAAEAAAA+ARsABQAAAAEAAABGASgAAwAAAAEAAgAAh2kABAAAAAEAAABOAAAAAAAAAJAAAAABAAAAkAAAAAEAAqACAAQAAAABAAAAXqADAAQAAAABAAAASgAAAAAwvtL8AAAACXBIWXMAABYlAAAWJQFJUiTwAAAGi0lEQVR4Ae2dXUgUXxTAjx+lpRImZmCGWWiRggWhvokP4kP0EvpgZFRE+aBUIL36IgX6IIlGmqEpSCJZkYpGGglhaAU9iGVppGaaKaampnn+92z+bT/u7KyzM7s7O/fAhZlzd+/d+c2Ze8/cj7M+yASEOEXg58+f8P79e5icnIS5uTmbND8/D35+fjA1NbVRj//GkTiwS4Dsc3h4GAYGBkyQCfT/aXx83O53KTM2NhY+fPiw8TkBfgOF7cHg4CB0dnaa0vPnz00WbfspZRoB3ozb169f4enTpybQXV1dMDIyYpar7qHhwVP7++DBA7h37x4Q7LW1NXUJS5RmSPAEl5oQgk3QFxYWJPBop/Yxklfz7ds3uHnzJtTV1cHo6KjqVH19fSE4ONiUQkJCwDzt2bPH4gYbwuK/fPkCxcXFUF1dDYuLi04D37VrF8TFxdmkmJgY8Pd3EClZvLcK80rw/PnzuHXrVnpXUZR8fHwwPj4e8/Pzsbm5GZkvrgouUKUUDyukv78fs7Ozkb20KIK9b98+vHDhAjY0NCBrnjS5Oq8Cz94asaCgALds2bJp4Dt37sRLly7hy5cvkXW+msA2L9RrwDc1NWFUVNSmgNMNOnHiBNJ3l5aWzLlofqx78NSOZ2RkbAo46xzx+vXryMZWNAcsVYFuwf/+/RsLCwsxMDDQYeiRkZFYWlqKzG+X4uEyvS7Bf/78GZOTkx0Gztw8vH37tsubE3t3UXfgHz16hNQROuIehoeH4507d3BlZcUeA7fk6Qb88vIyXrlyBcmvloPO3iDx4sWL+OPHD7dAdaRSXYBn4+CYlJQkC5xuyNGjR/HVq1eOXLtbP+Px4F+8eIGhoaGy0Hfs2IFlZWW4urrqVqCOVu7R4B8+fIjbtm2ThU5PAz0VehKPBV9VVSX7yk/t/dWrV5FcS72JR4IvKiqS7UTJsyEPR6/iUeD//PljGgWU81pSUlKQfHk9i8eAp4Gps2fPyrbnp06d0mXTYm0kHgOeRhXlLP3y5csuGTm0hqTFuUeALykpsQudOtEbN25ocf1uK9Pt4NmEs92OlE2l4d27d90GSKuK3Qq+tbXV7qRFQEAAPn78WKtrd2u5bgPf09ODQUFBkk0MTdvRBIW3ilvA0wQEjY3b60xv3brlrcxN1+Vy8OSry80Y0QSHt4vLwdOUmz1Lz83N9Xbmrrf47u5uJC9FCvzJkyeRnggjiMuW8NGi/CNHjkgunTt06BD09vYC63DZffF+8XXFJTILhjNnzkhC3759OzQ2NhoGuom5Kx7rmpoayeaF/Qhkaxpd8TM8qg7NO9fp6WmkdSwEmJdOnz7tUUBc9WM0B09eCg846Q4ePIi07M6Iomnn2tfXB2xajrvLgpYzU2eamJjI7oHxRLPOlXZdMGvnQifMbNmzYaGbzEyrx7yiokKyiaHhArY3VKuqdVGuJm387Oys3dVe9+/f1wUcLX+kJk1NeXk5MG+G23Cnp6dDVlYWN89IStU711+/fkF0dDR8//7dhiMbX4d3796ZdjnbZBpMobrFV1ZWcqET17y8PAF93cBUt3jaVjg2NmZjv2xFGAwNDcHu3btt8oyoUNXinz17xoVOYNnuOwHdzMJUtfjjx49DS0uLWfF/D9l2R/j48SOwPUo2eUZVqGbxnz59gra2Ni7HnJwcAd2KjGrg2VYX7lsqBci5du2aVbXiVBXwbKsL1NbWcmlmZmbCgQMHuHlGVqoCnq2PkQyic+7cOSPzlbx2VcDX19dzK2BjMpCWlsbNM7rSafAU/OzJkydcjmxlrykIGjfT4EqnwRN0th2di5G8GSF8Ak6DZ6FEuCWz3Xdw+PBhbp5QAjgFnu09gvb2di5HYe1cLBtKp8CzECNAwS55whYn8dRCt07AKfAdHR1ckBTckgbLhEgTcAo8hQvkiXAheVQsdYrBU7zG169fW5a2fibAc7FYKBWDp6UZNFRgLWy/EqSmplqrxbkVAcXg2Y4Oq6L+niYkJAALV8LNE8p/BBSDf/Pmzb9SzI5EM2MGw86hYvBv377lFnvs2DGuXigtCSgCT7F4WbQMy5LWzygCqRB5AorAU/B6WqLHEwGeR8VWpwg8BbTnCc02UVBjIfIEFIGn+VWe7N27l6cWOg4BReApOjVP9u/fz1MLHYeAIvBSf+Eglm9wCEuoFIGfmJjgFkdTfUIcI6AIPP3fEU8iIiJ4aqHjEFAEfmZmhlMUQFhYGFcvlLYE/gOaraFChBfiTAAAAABJRU5ErkJggg==;" vertex="1" parent="1">
          <mxGeometry x="313" y="251" width="36" height="28.34" as="geometry" />
        </mxCell>
        <mxCell id="JMQ2ScD6qQ5YHZ6In4Vd-9" value="" style="endArrow=none;html=1;rounded=0;strokeWidth=2.3;" edge="1" parent="1">
          <mxGeometry width="50" height="50" relative="1" as="geometry">
            <mxPoint x="348" y="252" as="sourcePoint" />
            <mxPoint x="379" y="252" as="targetPoint" />
          </mxGeometry>
        </mxCell>
        <mxCell id="JMQ2ScD6qQ5YHZ6In4Vd-12" value="" style="shape=image;verticalLabelPosition=bottom;labelBackgroundColor=default;verticalAlign=top;aspect=fixed;imageAspect=0;image=data:image/png,iVBORw0KGgoAAAANSUhEUgAAAF4AAABKCAYAAAAylePjAAAMP2lDQ1BJQ0MgUHJvZmlsZQAASImVVwdYU8kWnltSIbQAAlJCb4JIDSAlhBZ6RxCVkAQIJcZAULGjiwquXSxgQ1dFFKyAWFDEzqLY+2JBRVkXC3blTQrouq98b75v7vz3nzP/OXPuzL13AFA/zhWL81ANAPJFhZK4kADGmJRUBukpIAN9oAJMAYXLKxCzYmIiACyD7d/Lu+sAkbVXHGRa/+z/r0WTLyjgAYDEQJzBL+DlQ3wAALyKJ5YUAkCU8eaTC8UyDCvQlsAAIV4gw1kKXCXDGQq8R26TEMeGuA0AsiqXK8kCQO0S5BlFvCyoodYHsZOILxQBoM6A2Dc/fyIf4nSIbaCNGGKZPjPjB52sv2lmDGlyuVlDWDEXeSEHCgvEedyp/2c6/nfJz5MO+rCCVTVbEhonmzPM283cieEyrApxrygjKhpiLYg/CPlye4hRarY0NFFhjxryCtgwZ0AXYic+NzAcYkOIg0V5URFKPiNTGMyBGK4QdIqwkJMAsR7ECwQFQfFKm02SiXFKX2hDpoTNUvJnuRK5X5mv+9LcRJZS/3W2gKPUx9SKsxOSIaZCbFEkTIqCWA1ix4Lc+HClzejibHbUoI1EGieL3wLiOIEoJEChjxVlSoLjlPZl+QWD88U2ZQs5UUq8rzA7IVSRH6yNx5XHD+eCXRKIWImDOoKCMRGDc+ELAoMUc8eeCUSJ8UqdD+LCgDjFWJwqzotR2uNmgrwQGW8GsWtBUbxyLJ5UCBekQh/PFBfGJCjixItzuGExinjwpSACsEEgYAAprBlgIsgBwo7exl54p+gJBlwgAVlAAByUzOCIZHmPCF7jQTH4EyIBKBgaFyDvFYAiyH8dYhVXB5Ap7y2Sj8gFTyDOB+EgD95L5aNEQ96SwGPICP/hnQsrD8abB6us/9/zg+x3hgWZCCUjHfTIUB+0JAYRA4mhxGCiLW6A++LeeAS8+sPqjDNxz8F5fLcnPCF0Eh4SrhG6CLcmCEskP0UZCbqgfrAyFxk/5gK3gppueADuA9WhMq6LGwAH3BX6YeF+0LMbZNnKuGVZYfyk/bcZ/PA0lHYUJwpKGUbxp9j8PFLNTs1tSEWW6x/zo4g1Yyjf7KGen/2zf8g+H7bhP1tiC7D92BnsBHYOO4I1AgbWgjVh7dhRGR5aXY/lq2vQW5w8nlyoI/yHv8EnK8tkgVOtU4/TF0VfoWCK7B0N2BPFUyXCrOxCBgt+EQQMjojnOILh7OTsAoDs+6J4fb2JlX83EN3279zcPwDwaRkYGDj8nQtrAWCvB9z+h75zNkz46VAB4OwhnlRSpOBw2YUA3xLqcKfpA2NgDmzgfJyBO/AG/iAIhIFokABSwHgYfTZc5xIwGUwHc0ApKAdLwSqwDmwEW8AOsBvsA43gCDgBToML4BK4Bu7A1dMNXoA+8A58RhCEhNAQOqKPmCCWiD3ijDARXyQIiUDikBQkHclCRIgUmY7MRcqR5cg6ZDNSg+xFDiEnkHNIJ3ILeYD0IK+RTyiGqqLaqBFqhY5EmSgLDUcT0HFoFjoJLUbnoYvRNWg1ugttQE+gF9BraBf6Au3HAKaC6WKmmAPGxNhYNJaKZWISbCZWhlVg1Vgd1gyf8xWsC+vFPuJEnI4zcAe4gkPxRJyHT8Jn4ovwdfgOvAFvw6/gD/A+/BuBRjAk2BO8CBzCGEIWYTKhlFBB2EY4SDgF91I34R2RSNQlWhM94F5MIeYQpxEXEdcT64nHiZ3ER8R+EomkT7In+ZCiSVxSIamUtJa0i9RCukzqJn0gq5BNyM7kYHIqWUQuIVeQd5KPkS+Tn5I/UzQolhQvSjSFT5lKWULZSmmmXKR0Uz5TNanWVB9qAjWHOoe6hlpHPUW9S32joqJipuKpEqsiVJmtskZlj8pZlQcqH1W1VO1U2appqlLVxarbVY+r3lJ9Q6PRrGj+tFRaIW0xrYZ2knaf9kGNruaoxlHjq81Sq1RrULus9lKdom6pzlIfr16sXqG+X/2ieq8GRcNKg63B1ZipUalxSOOGRr8mXXOUZrRmvuYizZ2a5zSfaZG0rLSCtPha87S2aJ3UekTH6OZ0Np1Hn0vfSj9F79Ymaltrc7RztMu1d2t3aPfpaOm46iTpTNGp1Dmq06WL6VrpcnTzdJfo7tO9rvtpmNEw1jDBsIXD6oZdHvZeb7iev55Ar0yvXu+a3id9hn6Qfq7+Mv1G/XsGuIGdQazBZIMNBqcMeodrD/cezhteNnzf8NuGqKGdYZzhNMMthu2G/UbGRiFGYqO1RieNeo11jf2Nc4xXGh8z7jGhm/iaCE1WmrSYPGfoMFiMPMYaRhujz9TQNNRUarrZtMP0s5m1WaJZiVm92T1zqjnTPNN8pXmreZ+FiUWkxXSLWovblhRLpmW25WrLM5bvraytkq3mWzVaPbPWs+ZYF1vXWt+1odn42Uyyqba5aku0Zdrm2q63vWSH2rnZZdtV2l20R+3d7YX26+07RxBGeI4QjageccNB1YHlUORQ6/DAUdcxwrHEsdHx5UiLkakjl408M/Kbk5tTntNWpzujtEaFjSoZ1TzqtbOdM8+50vmqC80l2GWWS5PLK1d7V4HrBtebbnS3SLf5bq1uX9093CXude49HhYe6R5VHjeY2swY5iLmWU+CZ4DnLM8jnh+93L0KvfZ5/eXt4J3rvdP72Wjr0YLRW0c/8jHz4fps9unyZfim+27y7fIz9eP6Vfs99Df35/tv83/KsmXlsHaxXgY4BUgCDga8Z3uxZ7CPB2KBIYFlgR1BWkGJQeuC7gebBWcF1wb3hbiFTAs5HkoIDQ9dFnqDY8ThcWo4fWEeYTPC2sJVw+PD14U/jLCLkEQ0R6KRYZErIu9GWUaJohqjQTQnekX0vRjrmEkxh2OJsTGxlbFP4kbFTY87E0+PnxC/M/5dQkDCkoQ7iTaJ0sTWJPWktKSapPfJgcnLk7vGjBwzY8yFFIMUYUpTKik1KXVbav/YoLGrxnanuaWVpl0fZz1uyrhz4w3G540/OkF9AnfC/nRCenL6zvQv3GhuNbc/g5NRldHHY/NW817w/fkr+T0CH8FywdNMn8zlmc+yfLJWZPVk+2VXZPcK2cJ1wlc5oTkbc97nRuduzx3IS86rzyfnp+cfEmmJckVtE40nTpnYKbYXl4q7JnlNWjWpTxIu2VaAFIwraCrUhj/y7VIb6S/SB0W+RZVFHyYnTd4/RXOKaEr7VLupC6c+LQ4u/m0aPo03rXW66fQ50x/MYM3YPBOZmTGzdZb5rHmzumeHzN4xhzond87vJU4ly0vezk2e2zzPaN7seY9+CfmltlStVFJ6Y773/I0L8AXCBR0LXRauXfitjF92vtypvKL8yyLeovO/jvp1za8DizMXdyxxX7JhKXGpaOn1ZX7LdizXXF68/NGKyBUNKxkry1a+XTVh1bkK14qNq6mrpau71kSsaVprsXbp2i/rstddqwyorK8yrFpY9X49f/3lDf4b6jYabSzf+GmTcNPNzSGbG6qtqiu2ELcUbXmyNWnrmd+Yv9VsM9hWvu3rdtH2rh1xO9pqPGpqdhruXFKL1kpre3al7bq0O3B3U51D3eZ63fryPWCPdM/zvel7r+8L39e6n7m/7oDlgaqD9INlDUjD1Ia+xuzGrqaUps5DYYdam72bDx52PLz9iOmRyqM6R5ccox6bd2ygpbil/7j4eO+JrBOPWie03jk55uTVtti2jlPhp86eDj598gzrTMtZn7NHznmdO3Seeb7xgvuFhna39oO/u/1+sMO9o+Gix8WmS56XmjtHdx677Hf5xJXAK6evcq5euBZ1rfN64vWbN9JudN3k33x2K+/Wq9tFtz/fmX2XcLfsnsa9ivuG96v/sP2jvsu96+iDwAftD+Mf3nnEe/TiccHjL93zntCeVDw1eVrzzPnZkZ7gnkvPxz7vfiF+8bm39E/NP6te2rw88Jf/X+19Y/q6X0leDbxe9Eb/zfa3rm9b+2P677/Lf/f5fdkH/Q87PjI/nvmU/Onp58lfSF/WfLX92vwt/NvdgfyBATFXwpX/CmCwopmZALzeDgAtBQA6PJ9RxyrOf/KCKM6scgT+E1acEeXFHYA6+P8e2wv/bm4AsGcrPH5BffU0AGJoACR4AtTFZagOntXk50pZIcJzwKaQrxn5GeDfFMWZ84e4f26BTNUV/Nz+C7EifFdeT1v1AAAAbGVYSWZNTQAqAAAACAAEARoABQAAAAEAAAA+ARsABQAAAAEAAABGASgAAwAAAAEAAgAAh2kABAAAAAEAAABOAAAAAAAAAJAAAAABAAAAkAAAAAEAAqACAAQAAAABAAAAXqADAAQAAAABAAAASgAAAAAwvtL8AAAACXBIWXMAABYlAAAWJQFJUiTwAAAGi0lEQVR4Ae2dXUgUXxTAjx+lpRImZmCGWWiRggWhvokP4kP0EvpgZFRE+aBUIL36IgX6IIlGmqEpSCJZkYpGGglhaAU9iGVppGaaKaampnn+92z+bT/u7KyzM7s7O/fAhZlzd+/d+c2Ze8/cj7M+yASEOEXg58+f8P79e5icnIS5uTmbND8/D35+fjA1NbVRj//GkTiwS4Dsc3h4GAYGBkyQCfT/aXx83O53KTM2NhY+fPiw8TkBfgOF7cHg4CB0dnaa0vPnz00WbfspZRoB3ozb169f4enTpybQXV1dMDIyYpar7qHhwVP7++DBA7h37x4Q7LW1NXUJS5RmSPAEl5oQgk3QFxYWJPBop/Yxklfz7ds3uHnzJtTV1cHo6KjqVH19fSE4ONiUQkJCwDzt2bPH4gYbwuK/fPkCxcXFUF1dDYuLi04D37VrF8TFxdmkmJgY8Pd3EClZvLcK80rw/PnzuHXrVnpXUZR8fHwwPj4e8/Pzsbm5GZkvrgouUKUUDyukv78fs7Ozkb20KIK9b98+vHDhAjY0NCBrnjS5Oq8Cz94asaCgALds2bJp4Dt37sRLly7hy5cvkXW+msA2L9RrwDc1NWFUVNSmgNMNOnHiBNJ3l5aWzLlofqx78NSOZ2RkbAo46xzx+vXryMZWNAcsVYFuwf/+/RsLCwsxMDDQYeiRkZFYWlqKzG+X4uEyvS7Bf/78GZOTkx0Gztw8vH37tsubE3t3UXfgHz16hNQROuIehoeH4507d3BlZcUeA7fk6Qb88vIyXrlyBcmvloPO3iDx4sWL+OPHD7dAdaRSXYBn4+CYlJQkC5xuyNGjR/HVq1eOXLtbP+Px4F+8eIGhoaGy0Hfs2IFlZWW4urrqVqCOVu7R4B8+fIjbtm2ThU5PAz0VehKPBV9VVSX7yk/t/dWrV5FcS72JR4IvKiqS7UTJsyEPR6/iUeD//PljGgWU81pSUlKQfHk9i8eAp4Gps2fPyrbnp06d0mXTYm0kHgOeRhXlLP3y5csuGTm0hqTFuUeALykpsQudOtEbN25ocf1uK9Pt4NmEs92OlE2l4d27d90GSKuK3Qq+tbXV7qRFQEAAPn78WKtrd2u5bgPf09ODQUFBkk0MTdvRBIW3ilvA0wQEjY3b60xv3brlrcxN1+Vy8OSry80Y0QSHt4vLwdOUmz1Lz83N9Xbmrrf47u5uJC9FCvzJkyeRnggjiMuW8NGi/CNHjkgunTt06BD09vYC63DZffF+8XXFJTILhjNnzkhC3759OzQ2NhoGuom5Kx7rmpoayeaF/Qhkaxpd8TM8qg7NO9fp6WmkdSwEmJdOnz7tUUBc9WM0B09eCg846Q4ePIi07M6Iomnn2tfXB2xajrvLgpYzU2eamJjI7oHxRLPOlXZdMGvnQifMbNmzYaGbzEyrx7yiokKyiaHhArY3VKuqdVGuJm387Oys3dVe9+/f1wUcLX+kJk1NeXk5MG+G23Cnp6dDVlYWN89IStU711+/fkF0dDR8//7dhiMbX4d3796ZdjnbZBpMobrFV1ZWcqET17y8PAF93cBUt3jaVjg2NmZjv2xFGAwNDcHu3btt8oyoUNXinz17xoVOYNnuOwHdzMJUtfjjx49DS0uLWfF/D9l2R/j48SOwPUo2eUZVqGbxnz59gra2Ni7HnJwcAd2KjGrg2VYX7lsqBci5du2aVbXiVBXwbKsL1NbWcmlmZmbCgQMHuHlGVqoCnq2PkQyic+7cOSPzlbx2VcDX19dzK2BjMpCWlsbNM7rSafAU/OzJkydcjmxlrykIGjfT4EqnwRN0th2di5G8GSF8Ak6DZ6FEuCWz3Xdw+PBhbp5QAjgFnu09gvb2di5HYe1cLBtKp8CzECNAwS55whYn8dRCt07AKfAdHR1ckBTckgbLhEgTcAo8hQvkiXAheVQsdYrBU7zG169fW5a2fibAc7FYKBWDp6UZNFRgLWy/EqSmplqrxbkVAcXg2Y4Oq6L+niYkJAALV8LNE8p/BBSDf/Pmzb9SzI5EM2MGw86hYvBv377lFnvs2DGuXigtCSgCT7F4WbQMy5LWzygCqRB5AorAU/B6WqLHEwGeR8VWpwg8BbTnCc02UVBjIfIEFIGn+VWe7N27l6cWOg4BReApOjVP9u/fz1MLHYeAIvBSf+Eglm9wCEuoFIGfmJjgFkdTfUIcI6AIPP3fEU8iIiJ4aqHjEFAEfmZmhlMUQFhYGFcvlLYE/gOaraFChBfiTAAAAABJRU5ErkJggg==;" vertex="1" parent="1">
          <mxGeometry x="372" y="222.66" width="36" height="28.34" as="geometry" />
        </mxCell>
        <mxCell id="JMQ2ScD6qQ5YHZ6In4Vd-13" value="" style="endArrow=none;html=1;rounded=0;strokeWidth=2.3;" edge="1" parent="1">
          <mxGeometry width="50" height="50" relative="1" as="geometry">
            <mxPoint x="407" y="223.66" as="sourcePoint" />
            <mxPoint x="438" y="223.66" as="targetPoint" />
          </mxGeometry>
        </mxCell>
        <mxCell id="JMQ2ScD6qQ5YHZ6In4Vd-14" value="" style="shape=image;verticalLabelPosition=bottom;labelBackgroundColor=default;verticalAlign=top;aspect=fixed;imageAspect=0;image=data:image/png,iVBORw0KGgoAAAANSUhEUgAAAF4AAABKCAYAAAAylePjAAAMP2lDQ1BJQ0MgUHJvZmlsZQAASImVVwdYU8kWnltSIbQAAlJCb4JIDSAlhBZ6RxCVkAQIJcZAULGjiwquXSxgQ1dFFKyAWFDEzqLY+2JBRVkXC3blTQrouq98b75v7vz3nzP/OXPuzL13AFA/zhWL81ANAPJFhZK4kADGmJRUBukpIAN9oAJMAYXLKxCzYmIiACyD7d/Lu+sAkbVXHGRa/+z/r0WTLyjgAYDEQJzBL+DlQ3wAALyKJ5YUAkCU8eaTC8UyDCvQlsAAIV4gw1kKXCXDGQq8R26TEMeGuA0AsiqXK8kCQO0S5BlFvCyoodYHsZOILxQBoM6A2Dc/fyIf4nSIbaCNGGKZPjPjB52sv2lmDGlyuVlDWDEXeSEHCgvEedyp/2c6/nfJz5MO+rCCVTVbEhonmzPM283cieEyrApxrygjKhpiLYg/CPlye4hRarY0NFFhjxryCtgwZ0AXYic+NzAcYkOIg0V5URFKPiNTGMyBGK4QdIqwkJMAsR7ECwQFQfFKm02SiXFKX2hDpoTNUvJnuRK5X5mv+9LcRJZS/3W2gKPUx9SKsxOSIaZCbFEkTIqCWA1ix4Lc+HClzejibHbUoI1EGieL3wLiOIEoJEChjxVlSoLjlPZl+QWD88U2ZQs5UUq8rzA7IVSRH6yNx5XHD+eCXRKIWImDOoKCMRGDc+ELAoMUc8eeCUSJ8UqdD+LCgDjFWJwqzotR2uNmgrwQGW8GsWtBUbxyLJ5UCBekQh/PFBfGJCjixItzuGExinjwpSACsEEgYAAprBlgIsgBwo7exl54p+gJBlwgAVlAAByUzOCIZHmPCF7jQTH4EyIBKBgaFyDvFYAiyH8dYhVXB5Ap7y2Sj8gFTyDOB+EgD95L5aNEQ96SwGPICP/hnQsrD8abB6us/9/zg+x3hgWZCCUjHfTIUB+0JAYRA4mhxGCiLW6A++LeeAS8+sPqjDNxz8F5fLcnPCF0Eh4SrhG6CLcmCEskP0UZCbqgfrAyFxk/5gK3gppueADuA9WhMq6LGwAH3BX6YeF+0LMbZNnKuGVZYfyk/bcZ/PA0lHYUJwpKGUbxp9j8PFLNTs1tSEWW6x/zo4g1Yyjf7KGen/2zf8g+H7bhP1tiC7D92BnsBHYOO4I1AgbWgjVh7dhRGR5aXY/lq2vQW5w8nlyoI/yHv8EnK8tkgVOtU4/TF0VfoWCK7B0N2BPFUyXCrOxCBgt+EQQMjojnOILh7OTsAoDs+6J4fb2JlX83EN3279zcPwDwaRkYGDj8nQtrAWCvB9z+h75zNkz46VAB4OwhnlRSpOBw2YUA3xLqcKfpA2NgDmzgfJyBO/AG/iAIhIFokABSwHgYfTZc5xIwGUwHc0ApKAdLwSqwDmwEW8AOsBvsA43gCDgBToML4BK4Bu7A1dMNXoA+8A58RhCEhNAQOqKPmCCWiD3ijDARXyQIiUDikBQkHclCRIgUmY7MRcqR5cg6ZDNSg+xFDiEnkHNIJ3ILeYD0IK+RTyiGqqLaqBFqhY5EmSgLDUcT0HFoFjoJLUbnoYvRNWg1ugttQE+gF9BraBf6Au3HAKaC6WKmmAPGxNhYNJaKZWISbCZWhlVg1Vgd1gyf8xWsC+vFPuJEnI4zcAe4gkPxRJyHT8Jn4ovwdfgOvAFvw6/gD/A+/BuBRjAk2BO8CBzCGEIWYTKhlFBB2EY4SDgF91I34R2RSNQlWhM94F5MIeYQpxEXEdcT64nHiZ3ER8R+EomkT7In+ZCiSVxSIamUtJa0i9RCukzqJn0gq5BNyM7kYHIqWUQuIVeQd5KPkS+Tn5I/UzQolhQvSjSFT5lKWULZSmmmXKR0Uz5TNanWVB9qAjWHOoe6hlpHPUW9S32joqJipuKpEqsiVJmtskZlj8pZlQcqH1W1VO1U2appqlLVxarbVY+r3lJ9Q6PRrGj+tFRaIW0xrYZ2knaf9kGNruaoxlHjq81Sq1RrULus9lKdom6pzlIfr16sXqG+X/2ieq8GRcNKg63B1ZipUalxSOOGRr8mXXOUZrRmvuYizZ2a5zSfaZG0rLSCtPha87S2aJ3UekTH6OZ0Np1Hn0vfSj9F79Ymaltrc7RztMu1d2t3aPfpaOm46iTpTNGp1Dmq06WL6VrpcnTzdJfo7tO9rvtpmNEw1jDBsIXD6oZdHvZeb7iev55Ar0yvXu+a3id9hn6Qfq7+Mv1G/XsGuIGdQazBZIMNBqcMeodrD/cezhteNnzf8NuGqKGdYZzhNMMthu2G/UbGRiFGYqO1RieNeo11jf2Nc4xXGh8z7jGhm/iaCE1WmrSYPGfoMFiMPMYaRhujz9TQNNRUarrZtMP0s5m1WaJZiVm92T1zqjnTPNN8pXmreZ+FiUWkxXSLWovblhRLpmW25WrLM5bvraytkq3mWzVaPbPWs+ZYF1vXWt+1odn42Uyyqba5aku0Zdrm2q63vWSH2rnZZdtV2l20R+3d7YX26+07RxBGeI4QjageccNB1YHlUORQ6/DAUdcxwrHEsdHx5UiLkakjl408M/Kbk5tTntNWpzujtEaFjSoZ1TzqtbOdM8+50vmqC80l2GWWS5PLK1d7V4HrBtebbnS3SLf5bq1uX9093CXude49HhYe6R5VHjeY2swY5iLmWU+CZ4DnLM8jnh+93L0KvfZ5/eXt4J3rvdP72Wjr0YLRW0c/8jHz4fps9unyZfim+27y7fIz9eP6Vfs99Df35/tv83/KsmXlsHaxXgY4BUgCDga8Z3uxZ7CPB2KBIYFlgR1BWkGJQeuC7gebBWcF1wb3hbiFTAs5HkoIDQ9dFnqDY8ThcWo4fWEeYTPC2sJVw+PD14U/jLCLkEQ0R6KRYZErIu9GWUaJohqjQTQnekX0vRjrmEkxh2OJsTGxlbFP4kbFTY87E0+PnxC/M/5dQkDCkoQ7iTaJ0sTWJPWktKSapPfJgcnLk7vGjBwzY8yFFIMUYUpTKik1KXVbav/YoLGrxnanuaWVpl0fZz1uyrhz4w3G540/OkF9AnfC/nRCenL6zvQv3GhuNbc/g5NRldHHY/NW817w/fkr+T0CH8FywdNMn8zlmc+yfLJWZPVk+2VXZPcK2cJ1wlc5oTkbc97nRuduzx3IS86rzyfnp+cfEmmJckVtE40nTpnYKbYXl4q7JnlNWjWpTxIu2VaAFIwraCrUhj/y7VIb6S/SB0W+RZVFHyYnTd4/RXOKaEr7VLupC6c+LQ4u/m0aPo03rXW66fQ50x/MYM3YPBOZmTGzdZb5rHmzumeHzN4xhzond87vJU4ly0vezk2e2zzPaN7seY9+CfmltlStVFJ6Y773/I0L8AXCBR0LXRauXfitjF92vtypvKL8yyLeovO/jvp1za8DizMXdyxxX7JhKXGpaOn1ZX7LdizXXF68/NGKyBUNKxkry1a+XTVh1bkK14qNq6mrpau71kSsaVprsXbp2i/rstddqwyorK8yrFpY9X49f/3lDf4b6jYabSzf+GmTcNPNzSGbG6qtqiu2ELcUbXmyNWnrmd+Yv9VsM9hWvu3rdtH2rh1xO9pqPGpqdhruXFKL1kpre3al7bq0O3B3U51D3eZ63fryPWCPdM/zvel7r+8L39e6n7m/7oDlgaqD9INlDUjD1Ia+xuzGrqaUps5DYYdam72bDx52PLz9iOmRyqM6R5ccox6bd2ygpbil/7j4eO+JrBOPWie03jk55uTVtti2jlPhp86eDj598gzrTMtZn7NHznmdO3Seeb7xgvuFhna39oO/u/1+sMO9o+Gix8WmS56XmjtHdx677Hf5xJXAK6evcq5euBZ1rfN64vWbN9JudN3k33x2K+/Wq9tFtz/fmX2XcLfsnsa9ivuG96v/sP2jvsu96+iDwAftD+Mf3nnEe/TiccHjL93zntCeVDw1eVrzzPnZkZ7gnkvPxz7vfiF+8bm39E/NP6te2rw88Jf/X+19Y/q6X0leDbxe9Eb/zfa3rm9b+2P677/Lf/f5fdkH/Q87PjI/nvmU/Onp58lfSF/WfLX92vwt/NvdgfyBATFXwpX/CmCwopmZALzeDgAtBQA6PJ9RxyrOf/KCKM6scgT+E1acEeXFHYA6+P8e2wv/bm4AsGcrPH5BffU0AGJoACR4AtTFZagOntXk50pZIcJzwKaQrxn5GeDfFMWZ84e4f26BTNUV/Nz+C7EifFdeT1v1AAAAbGVYSWZNTQAqAAAACAAEARoABQAAAAEAAAA+ARsABQAAAAEAAABGASgAAwAAAAEAAgAAh2kABAAAAAEAAABOAAAAAAAAAJAAAAABAAAAkAAAAAEAAqACAAQAAAABAAAAXqADAAQAAAABAAAASgAAAAAwvtL8AAAACXBIWXMAABYlAAAWJQFJUiTwAAAGi0lEQVR4Ae2dXUgUXxTAjx+lpRImZmCGWWiRggWhvokP4kP0EvpgZFRE+aBUIL36IgX6IIlGmqEpSCJZkYpGGglhaAU9iGVppGaaKaampnn+92z+bT/u7KyzM7s7O/fAhZlzd+/d+c2Ze8/cj7M+yASEOEXg58+f8P79e5icnIS5uTmbND8/D35+fjA1NbVRj//GkTiwS4Dsc3h4GAYGBkyQCfT/aXx83O53KTM2NhY+fPiw8TkBfgOF7cHg4CB0dnaa0vPnz00WbfspZRoB3ozb169f4enTpybQXV1dMDIyYpar7qHhwVP7++DBA7h37x4Q7LW1NXUJS5RmSPAEl5oQgk3QFxYWJPBop/Yxklfz7ds3uHnzJtTV1cHo6KjqVH19fSE4ONiUQkJCwDzt2bPH4gYbwuK/fPkCxcXFUF1dDYuLi04D37VrF8TFxdmkmJgY8Pd3EClZvLcK80rw/PnzuHXrVnpXUZR8fHwwPj4e8/Pzsbm5GZkvrgouUKUUDyukv78fs7Ozkb20KIK9b98+vHDhAjY0NCBrnjS5Oq8Cz94asaCgALds2bJp4Dt37sRLly7hy5cvkXW+msA2L9RrwDc1NWFUVNSmgNMNOnHiBNJ3l5aWzLlofqx78NSOZ2RkbAo46xzx+vXryMZWNAcsVYFuwf/+/RsLCwsxMDDQYeiRkZFYWlqKzG+X4uEyvS7Bf/78GZOTkx0Gztw8vH37tsubE3t3UXfgHz16hNQROuIehoeH4507d3BlZcUeA7fk6Qb88vIyXrlyBcmvloPO3iDx4sWL+OPHD7dAdaRSXYBn4+CYlJQkC5xuyNGjR/HVq1eOXLtbP+Px4F+8eIGhoaGy0Hfs2IFlZWW4urrqVqCOVu7R4B8+fIjbtm2ThU5PAz0VehKPBV9VVSX7yk/t/dWrV5FcS72JR4IvKiqS7UTJsyEPR6/iUeD//PljGgWU81pSUlKQfHk9i8eAp4Gps2fPyrbnp06d0mXTYm0kHgOeRhXlLP3y5csuGTm0hqTFuUeALykpsQudOtEbN25ocf1uK9Pt4NmEs92OlE2l4d27d90GSKuK3Qq+tbXV7qRFQEAAPn78WKtrd2u5bgPf09ODQUFBkk0MTdvRBIW3ilvA0wQEjY3b60xv3brlrcxN1+Vy8OSry80Y0QSHt4vLwdOUmz1Lz83N9Xbmrrf47u5uJC9FCvzJkyeRnggjiMuW8NGi/CNHjkgunTt06BD09vYC63DZffF+8XXFJTILhjNnzkhC3759OzQ2NhoGuom5Kx7rmpoayeaF/Qhkaxpd8TM8qg7NO9fp6WmkdSwEmJdOnz7tUUBc9WM0B09eCg846Q4ePIi07M6Iomnn2tfXB2xajrvLgpYzU2eamJjI7oHxRLPOlXZdMGvnQifMbNmzYaGbzEyrx7yiokKyiaHhArY3VKuqdVGuJm387Oys3dVe9+/f1wUcLX+kJk1NeXk5MG+G23Cnp6dDVlYWN89IStU711+/fkF0dDR8//7dhiMbX4d3796ZdjnbZBpMobrFV1ZWcqET17y8PAF93cBUt3jaVjg2NmZjv2xFGAwNDcHu3btt8oyoUNXinz17xoVOYNnuOwHdzMJUtfjjx49DS0uLWfF/D9l2R/j48SOwPUo2eUZVqGbxnz59gra2Ni7HnJwcAd2KjGrg2VYX7lsqBci5du2aVbXiVBXwbKsL1NbWcmlmZmbCgQMHuHlGVqoCnq2PkQyic+7cOSPzlbx2VcDX19dzK2BjMpCWlsbNM7rSafAU/OzJkydcjmxlrykIGjfT4EqnwRN0th2di5G8GSF8Ak6DZ6FEuCWz3Xdw+PBhbp5QAjgFnu09gvb2di5HYe1cLBtKp8CzECNAwS55whYn8dRCt07AKfAdHR1ckBTckgbLhEgTcAo8hQvkiXAheVQsdYrBU7zG169fW5a2fibAc7FYKBWDp6UZNFRgLWy/EqSmplqrxbkVAcXg2Y4Oq6L+niYkJAALV8LNE8p/BBSDf/Pmzb9SzI5EM2MGw86hYvBv377lFnvs2DGuXigtCSgCT7F4WbQMy5LWzygCqRB5AorAU/B6WqLHEwGeR8VWpwg8BbTnCc02UVBjIfIEFIGn+VWe7N27l6cWOg4BReApOjVP9u/fz1MLHYeAIvBSf+Eglm9wCEuoFIGfmJjgFkdTfUIcI6AIPP3fEU8iIiJ4aqHjEFAEfmZmhlMUQFhYGFcvlLYE/gOaraFChBfiTAAAAABJRU5ErkJggg==;" vertex="1" parent="1">
          <mxGeometry x="431" y="194.32" width="36" height="28.34" as="geometry" />
        </mxCell>
        <mxCell id="JMQ2ScD6qQ5YHZ6In4Vd-15" value="" style="endArrow=none;html=1;rounded=0;strokeWidth=2.3;" edge="1" parent="1">
          <mxGeometry width="50" height="50" relative="1" as="geometry">
            <mxPoint x="466" y="195.32" as="sourcePoint" />
            <mxPoint x="497" y="195.32" as="targetPoint" />
          </mxGeometry>
        </mxCell>
        <mxCell id="JMQ2ScD6qQ5YHZ6In4Vd-22" value="" style="shape=image;verticalLabelPosition=bottom;labelBackgroundColor=default;verticalAlign=top;aspect=fixed;imageAspect=0;image=data:image/png,iVBORw0KGgoAAAANSUhEUgAAAF4AAABKCAYAAAAylePjAAAMP2lDQ1BJQ0MgUHJvZmlsZQAASImVVwdYU8kWnltSIbQAAlJCb4JIDSAlhBZ6RxCVkAQIJcZAULGjiwquXSxgQ1dFFKyAWFDEzqLY+2JBRVkXC3blTQrouq98b75v7vz3nzP/OXPuzL13AFA/zhWL81ANAPJFhZK4kADGmJRUBukpIAN9oAJMAYXLKxCzYmIiACyD7d/Lu+sAkbVXHGRa/+z/r0WTLyjgAYDEQJzBL+DlQ3wAALyKJ5YUAkCU8eaTC8UyDCvQlsAAIV4gw1kKXCXDGQq8R26TEMeGuA0AsiqXK8kCQO0S5BlFvCyoodYHsZOILxQBoM6A2Dc/fyIf4nSIbaCNGGKZPjPjB52sv2lmDGlyuVlDWDEXeSEHCgvEedyp/2c6/nfJz5MO+rCCVTVbEhonmzPM283cieEyrApxrygjKhpiLYg/CPlye4hRarY0NFFhjxryCtgwZ0AXYic+NzAcYkOIg0V5URFKPiNTGMyBGK4QdIqwkJMAsR7ECwQFQfFKm02SiXFKX2hDpoTNUvJnuRK5X5mv+9LcRJZS/3W2gKPUx9SKsxOSIaZCbFEkTIqCWA1ix4Lc+HClzejibHbUoI1EGieL3wLiOIEoJEChjxVlSoLjlPZl+QWD88U2ZQs5UUq8rzA7IVSRH6yNx5XHD+eCXRKIWImDOoKCMRGDc+ELAoMUc8eeCUSJ8UqdD+LCgDjFWJwqzotR2uNmgrwQGW8GsWtBUbxyLJ5UCBekQh/PFBfGJCjixItzuGExinjwpSACsEEgYAAprBlgIsgBwo7exl54p+gJBlwgAVlAAByUzOCIZHmPCF7jQTH4EyIBKBgaFyDvFYAiyH8dYhVXB5Ap7y2Sj8gFTyDOB+EgD95L5aNEQ96SwGPICP/hnQsrD8abB6us/9/zg+x3hgWZCCUjHfTIUB+0JAYRA4mhxGCiLW6A++LeeAS8+sPqjDNxz8F5fLcnPCF0Eh4SrhG6CLcmCEskP0UZCbqgfrAyFxk/5gK3gppueADuA9WhMq6LGwAH3BX6YeF+0LMbZNnKuGVZYfyk/bcZ/PA0lHYUJwpKGUbxp9j8PFLNTs1tSEWW6x/zo4g1Yyjf7KGen/2zf8g+H7bhP1tiC7D92BnsBHYOO4I1AgbWgjVh7dhRGR5aXY/lq2vQW5w8nlyoI/yHv8EnK8tkgVOtU4/TF0VfoWCK7B0N2BPFUyXCrOxCBgt+EQQMjojnOILh7OTsAoDs+6J4fb2JlX83EN3279zcPwDwaRkYGDj8nQtrAWCvB9z+h75zNkz46VAB4OwhnlRSpOBw2YUA3xLqcKfpA2NgDmzgfJyBO/AG/iAIhIFokABSwHgYfTZc5xIwGUwHc0ApKAdLwSqwDmwEW8AOsBvsA43gCDgBToML4BK4Bu7A1dMNXoA+8A58RhCEhNAQOqKPmCCWiD3ijDARXyQIiUDikBQkHclCRIgUmY7MRcqR5cg6ZDNSg+xFDiEnkHNIJ3ILeYD0IK+RTyiGqqLaqBFqhY5EmSgLDUcT0HFoFjoJLUbnoYvRNWg1ugttQE+gF9BraBf6Au3HAKaC6WKmmAPGxNhYNJaKZWISbCZWhlVg1Vgd1gyf8xWsC+vFPuJEnI4zcAe4gkPxRJyHT8Jn4ovwdfgOvAFvw6/gD/A+/BuBRjAk2BO8CBzCGEIWYTKhlFBB2EY4SDgF91I34R2RSNQlWhM94F5MIeYQpxEXEdcT64nHiZ3ER8R+EomkT7In+ZCiSVxSIamUtJa0i9RCukzqJn0gq5BNyM7kYHIqWUQuIVeQd5KPkS+Tn5I/UzQolhQvSjSFT5lKWULZSmmmXKR0Uz5TNanWVB9qAjWHOoe6hlpHPUW9S32joqJipuKpEqsiVJmtskZlj8pZlQcqH1W1VO1U2appqlLVxarbVY+r3lJ9Q6PRrGj+tFRaIW0xrYZ2knaf9kGNruaoxlHjq81Sq1RrULus9lKdom6pzlIfr16sXqG+X/2ieq8GRcNKg63B1ZipUalxSOOGRr8mXXOUZrRmvuYizZ2a5zSfaZG0rLSCtPha87S2aJ3UekTH6OZ0Np1Hn0vfSj9F79Ymaltrc7RztMu1d2t3aPfpaOm46iTpTNGp1Dmq06WL6VrpcnTzdJfo7tO9rvtpmNEw1jDBsIXD6oZdHvZeb7iev55Ar0yvXu+a3id9hn6Qfq7+Mv1G/XsGuIGdQazBZIMNBqcMeodrD/cezhteNnzf8NuGqKGdYZzhNMMthu2G/UbGRiFGYqO1RieNeo11jf2Nc4xXGh8z7jGhm/iaCE1WmrSYPGfoMFiMPMYaRhujz9TQNNRUarrZtMP0s5m1WaJZiVm92T1zqjnTPNN8pXmreZ+FiUWkxXSLWovblhRLpmW25WrLM5bvraytkq3mWzVaPbPWs+ZYF1vXWt+1odn42Uyyqba5aku0Zdrm2q63vWSH2rnZZdtV2l20R+3d7YX26+07RxBGeI4QjageccNB1YHlUORQ6/DAUdcxwrHEsdHx5UiLkakjl408M/Kbk5tTntNWpzujtEaFjSoZ1TzqtbOdM8+50vmqC80l2GWWS5PLK1d7V4HrBtebbnS3SLf5bq1uX9093CXude49HhYe6R5VHjeY2swY5iLmWU+CZ4DnLM8jnh+93L0KvfZ5/eXt4J3rvdP72Wjr0YLRW0c/8jHz4fps9unyZfim+27y7fIz9eP6Vfs99Df35/tv83/KsmXlsHaxXgY4BUgCDga8Z3uxZ7CPB2KBIYFlgR1BWkGJQeuC7gebBWcF1wb3hbiFTAs5HkoIDQ9dFnqDY8ThcWo4fWEeYTPC2sJVw+PD14U/jLCLkEQ0R6KRYZErIu9GWUaJohqjQTQnekX0vRjrmEkxh2OJsTGxlbFP4kbFTY87E0+PnxC/M/5dQkDCkoQ7iTaJ0sTWJPWktKSapPfJgcnLk7vGjBwzY8yFFIMUYUpTKik1KXVbav/YoLGrxnanuaWVpl0fZz1uyrhz4w3G540/OkF9AnfC/nRCenL6zvQv3GhuNbc/g5NRldHHY/NW817w/fkr+T0CH8FywdNMn8zlmc+yfLJWZPVk+2VXZPcK2cJ1wlc5oTkbc97nRuduzx3IS86rzyfnp+cfEmmJckVtE40nTpnYKbYXl4q7JnlNWjWpTxIu2VaAFIwraCrUhj/y7VIb6S/SB0W+RZVFHyYnTd4/RXOKaEr7VLupC6c+LQ4u/m0aPo03rXW66fQ50x/MYM3YPBOZmTGzdZb5rHmzumeHzN4xhzond87vJU4ly0vezk2e2zzPaN7seY9+CfmltlStVFJ6Y773/I0L8AXCBR0LXRauXfitjF92vtypvKL8yyLeovO/jvp1za8DizMXdyxxX7JhKXGpaOn1ZX7LdizXXF68/NGKyBUNKxkry1a+XTVh1bkK14qNq6mrpau71kSsaVprsXbp2i/rstddqwyorK8yrFpY9X49f/3lDf4b6jYabSzf+GmTcNPNzSGbG6qtqiu2ELcUbXmyNWnrmd+Yv9VsM9hWvu3rdtH2rh1xO9pqPGpqdhruXFKL1kpre3al7bq0O3B3U51D3eZ63fryPWCPdM/zvel7r+8L39e6n7m/7oDlgaqD9INlDUjD1Ia+xuzGrqaUps5DYYdam72bDx52PLz9iOmRyqM6R5ccox6bd2ygpbil/7j4eO+JrBOPWie03jk55uTVtti2jlPhp86eDj598gzrTMtZn7NHznmdO3Seeb7xgvuFhna39oO/u/1+sMO9o+Gix8WmS56XmjtHdx677Hf5xJXAK6evcq5euBZ1rfN64vWbN9JudN3k33x2K+/Wq9tFtz/fmX2XcLfsnsa9ivuG96v/sP2jvsu96+iDwAftD+Mf3nnEe/TiccHjL93zntCeVDw1eVrzzPnZkZ7gnkvPxz7vfiF+8bm39E/NP6te2rw88Jf/X+19Y/q6X0leDbxe9Eb/zfa3rm9b+2P677/Lf/f5fdkH/Q87PjI/nvmU/Onp58lfSF/WfLX92vwt/NvdgfyBATFXwpX/CmCwopmZALzeDgAtBQA6PJ9RxyrOf/KCKM6scgT+E1acEeXFHYA6+P8e2wv/bm4AsGcrPH5BffU0AGJoACR4AtTFZagOntXk50pZIcJzwKaQrxn5GeDfFMWZ84e4f26BTNUV/Nz+C7EifFdeT1v1AAAAbGVYSWZNTQAqAAAACAAEARoABQAAAAEAAAA+ARsABQAAAAEAAABGASgAAwAAAAEAAgAAh2kABAAAAAEAAABOAAAAAAAAAJAAAAABAAAAkAAAAAEAAqACAAQAAAABAAAAXqADAAQAAAABAAAASgAAAAAwvtL8AAAACXBIWXMAABYlAAAWJQFJUiTwAAAGi0lEQVR4Ae2dXUgUXxTAjx+lpRImZmCGWWiRggWhvokP4kP0EvpgZFRE+aBUIL36IgX6IIlGmqEpSCJZkYpGGglhaAU9iGVppGaaKaampnn+92z+bT/u7KyzM7s7O/fAhZlzd+/d+c2Ze8/cj7M+yASEOEXg58+f8P79e5icnIS5uTmbND8/D35+fjA1NbVRj//GkTiwS4Dsc3h4GAYGBkyQCfT/aXx83O53KTM2NhY+fPiw8TkBfgOF7cHg4CB0dnaa0vPnz00WbfspZRoB3ozb169f4enTpybQXV1dMDIyYpar7qHhwVP7++DBA7h37x4Q7LW1NXUJS5RmSPAEl5oQgk3QFxYWJPBop/Yxklfz7ds3uHnzJtTV1cHo6KjqVH19fSE4ONiUQkJCwDzt2bPH4gYbwuK/fPkCxcXFUF1dDYuLi04D37VrF8TFxdmkmJgY8Pd3EClZvLcK80rw/PnzuHXrVnpXUZR8fHwwPj4e8/Pzsbm5GZkvrgouUKUUDyukv78fs7Ozkb20KIK9b98+vHDhAjY0NCBrnjS5Oq8Cz94asaCgALds2bJp4Dt37sRLly7hy5cvkXW+msA2L9RrwDc1NWFUVNSmgNMNOnHiBNJ3l5aWzLlofqx78NSOZ2RkbAo46xzx+vXryMZWNAcsVYFuwf/+/RsLCwsxMDDQYeiRkZFYWlqKzG+X4uEyvS7Bf/78GZOTkx0Gztw8vH37tsubE3t3UXfgHz16hNQROuIehoeH4507d3BlZcUeA7fk6Qb88vIyXrlyBcmvloPO3iDx4sWL+OPHD7dAdaRSXYBn4+CYlJQkC5xuyNGjR/HVq1eOXLtbP+Px4F+8eIGhoaGy0Hfs2IFlZWW4urrqVqCOVu7R4B8+fIjbtm2ThU5PAz0VehKPBV9VVSX7yk/t/dWrV5FcS72JR4IvKiqS7UTJsyEPR6/iUeD//PljGgWU81pSUlKQfHk9i8eAp4Gps2fPyrbnp06d0mXTYm0kHgOeRhXlLP3y5csuGTm0hqTFuUeALykpsQudOtEbN25ocf1uK9Pt4NmEs92OlE2l4d27d90GSKuK3Qq+tbXV7qRFQEAAPn78WKtrd2u5bgPf09ODQUFBkk0MTdvRBIW3ilvA0wQEjY3b60xv3brlrcxN1+Vy8OSry80Y0QSHt4vLwdOUmz1Lz83N9Xbmrrf47u5uJC9FCvzJkyeRnggjiMuW8NGi/CNHjkgunTt06BD09vYC63DZffF+8XXFJTILhjNnzkhC3759OzQ2NhoGuom5Kx7rmpoayeaF/Qhkaxpd8TM8qg7NO9fp6WmkdSwEmJdOnz7tUUBc9WM0B09eCg846Q4ePIi07M6Iomnn2tfXB2xajrvLgpYzU2eamJjI7oHxRLPOlXZdMGvnQifMbNmzYaGbzEyrx7yiokKyiaHhArY3VKuqdVGuJm387Oys3dVe9+/f1wUcLX+kJk1NeXk5MG+G23Cnp6dDVlYWN89IStU711+/fkF0dDR8//7dhiMbX4d3796ZdjnbZBpMobrFV1ZWcqET17y8PAF93cBUt3jaVjg2NmZjv2xFGAwNDcHu3btt8oyoUNXinz17xoVOYNnuOwHdzMJUtfjjx49DS0uLWfF/D9l2R/j48SOwPUo2eUZVqGbxnz59gra2Ni7HnJwcAd2KjGrg2VYX7lsqBci5du2aVbXiVBXwbKsL1NbWcmlmZmbCgQMHuHlGVqoCnq2PkQyic+7cOSPzlbx2VcDX19dzK2BjMpCWlsbNM7rSafAU/OzJkydcjmxlrykIGjfT4EqnwRN0th2di5G8GSF8Ak6DZ6FEuCWz3Xdw+PBhbp5QAjgFnu09gvb2di5HYe1cLBtKp8CzECNAwS55whYn8dRCt07AKfAdHR1ckBTckgbLhEgTcAo8hQvkiXAheVQsdYrBU7zG169fW5a2fibAc7FYKBWDp6UZNFRgLWy/EqSmplqrxbkVAcXg2Y4Oq6L+niYkJAALV8LNE8p/BBSDf/Pmzb9SzI5EM2MGw86hYvBv377lFnvs2DGuXigtCSgCT7F4WbQMy5LWzygCqRB5AorAU/B6WqLHEwGeR8VWpwg8BbTnCc02UVBjIfIEFIGn+VWe7N27l6cWOg4BReApOjVP9u/fz1MLHYeAIvBSf+Eglm9wCEuoFIGfmJjgFkdTfUIcI6AIPP3fEU8iIiJ4aqHjEFAEfmZmhlMUQFhYGFcvlLYE/gOaraFChBfiTAAAAABJRU5ErkJggg==;direction=west;" vertex="1" parent="1">
          <mxGeometry x="210" y="281.34" width="36" height="28.34" as="geometry" />
        </mxCell>
        <mxCell id="JMQ2ScD6qQ5YHZ6In4Vd-23" value="" style="endArrow=none;html=1;rounded=0;strokeWidth=2.3;" edge="1" parent="1">
          <mxGeometry width="50" height="50" relative="1" as="geometry">
            <mxPoint x="179" y="308.68" as="sourcePoint" />
            <mxPoint x="210" y="308.68" as="targetPoint" />
          </mxGeometry>
        </mxCell>
        <mxCell id="JMQ2ScD6qQ5YHZ6In4Vd-24" value="" style="shape=image;verticalLabelPosition=bottom;labelBackgroundColor=default;verticalAlign=top;aspect=fixed;imageAspect=0;image=data:image/png,iVBORw0KGgoAAAANSUhEUgAAAF4AAABKCAYAAAAylePjAAAMP2lDQ1BJQ0MgUHJvZmlsZQAASImVVwdYU8kWnltSIbQAAlJCb4JIDSAlhBZ6RxCVkAQIJcZAULGjiwquXSxgQ1dFFKyAWFDEzqLY+2JBRVkXC3blTQrouq98b75v7vz3nzP/OXPuzL13AFA/zhWL81ANAPJFhZK4kADGmJRUBukpIAN9oAJMAYXLKxCzYmIiACyD7d/Lu+sAkbVXHGRa/+z/r0WTLyjgAYDEQJzBL+DlQ3wAALyKJ5YUAkCU8eaTC8UyDCvQlsAAIV4gw1kKXCXDGQq8R26TEMeGuA0AsiqXK8kCQO0S5BlFvCyoodYHsZOILxQBoM6A2Dc/fyIf4nSIbaCNGGKZPjPjB52sv2lmDGlyuVlDWDEXeSEHCgvEedyp/2c6/nfJz5MO+rCCVTVbEhonmzPM283cieEyrApxrygjKhpiLYg/CPlye4hRarY0NFFhjxryCtgwZ0AXYic+NzAcYkOIg0V5URFKPiNTGMyBGK4QdIqwkJMAsR7ECwQFQfFKm02SiXFKX2hDpoTNUvJnuRK5X5mv+9LcRJZS/3W2gKPUx9SKsxOSIaZCbFEkTIqCWA1ix4Lc+HClzejibHbUoI1EGieL3wLiOIEoJEChjxVlSoLjlPZl+QWD88U2ZQs5UUq8rzA7IVSRH6yNx5XHD+eCXRKIWImDOoKCMRGDc+ELAoMUc8eeCUSJ8UqdD+LCgDjFWJwqzotR2uNmgrwQGW8GsWtBUbxyLJ5UCBekQh/PFBfGJCjixItzuGExinjwpSACsEEgYAAprBlgIsgBwo7exl54p+gJBlwgAVlAAByUzOCIZHmPCF7jQTH4EyIBKBgaFyDvFYAiyH8dYhVXB5Ap7y2Sj8gFTyDOB+EgD95L5aNEQ96SwGPICP/hnQsrD8abB6us/9/zg+x3hgWZCCUjHfTIUB+0JAYRA4mhxGCiLW6A++LeeAS8+sPqjDNxz8F5fLcnPCF0Eh4SrhG6CLcmCEskP0UZCbqgfrAyFxk/5gK3gppueADuA9WhMq6LGwAH3BX6YeF+0LMbZNnKuGVZYfyk/bcZ/PA0lHYUJwpKGUbxp9j8PFLNTs1tSEWW6x/zo4g1Yyjf7KGen/2zf8g+H7bhP1tiC7D92BnsBHYOO4I1AgbWgjVh7dhRGR5aXY/lq2vQW5w8nlyoI/yHv8EnK8tkgVOtU4/TF0VfoWCK7B0N2BPFUyXCrOxCBgt+EQQMjojnOILh7OTsAoDs+6J4fb2JlX83EN3279zcPwDwaRkYGDj8nQtrAWCvB9z+h75zNkz46VAB4OwhnlRSpOBw2YUA3xLqcKfpA2NgDmzgfJyBO/AG/iAIhIFokABSwHgYfTZc5xIwGUwHc0ApKAdLwSqwDmwEW8AOsBvsA43gCDgBToML4BK4Bu7A1dMNXoA+8A58RhCEhNAQOqKPmCCWiD3ijDARXyQIiUDikBQkHclCRIgUmY7MRcqR5cg6ZDNSg+xFDiEnkHNIJ3ILeYD0IK+RTyiGqqLaqBFqhY5EmSgLDUcT0HFoFjoJLUbnoYvRNWg1ugttQE+gF9BraBf6Au3HAKaC6WKmmAPGxNhYNJaKZWISbCZWhlVg1Vgd1gyf8xWsC+vFPuJEnI4zcAe4gkPxRJyHT8Jn4ovwdfgOvAFvw6/gD/A+/BuBRjAk2BO8CBzCGEIWYTKhlFBB2EY4SDgF91I34R2RSNQlWhM94F5MIeYQpxEXEdcT64nHiZ3ER8R+EomkT7In+ZCiSVxSIamUtJa0i9RCukzqJn0gq5BNyM7kYHIqWUQuIVeQd5KPkS+Tn5I/UzQolhQvSjSFT5lKWULZSmmmXKR0Uz5TNanWVB9qAjWHOoe6hlpHPUW9S32joqJipuKpEqsiVJmtskZlj8pZlQcqH1W1VO1U2appqlLVxarbVY+r3lJ9Q6PRrGj+tFRaIW0xrYZ2knaf9kGNruaoxlHjq81Sq1RrULus9lKdom6pzlIfr16sXqG+X/2ieq8GRcNKg63B1ZipUalxSOOGRr8mXXOUZrRmvuYizZ2a5zSfaZG0rLSCtPha87S2aJ3UekTH6OZ0Np1Hn0vfSj9F79Ymaltrc7RztMu1d2t3aPfpaOm46iTpTNGp1Dmq06WL6VrpcnTzdJfo7tO9rvtpmNEw1jDBsIXD6oZdHvZeb7iev55Ar0yvXu+a3id9hn6Qfq7+Mv1G/XsGuIGdQazBZIMNBqcMeodrD/cezhteNnzf8NuGqKGdYZzhNMMthu2G/UbGRiFGYqO1RieNeo11jf2Nc4xXGh8z7jGhm/iaCE1WmrSYPGfoMFiMPMYaRhujz9TQNNRUarrZtMP0s5m1WaJZiVm92T1zqjnTPNN8pXmreZ+FiUWkxXSLWovblhRLpmW25WrLM5bvraytkq3mWzVaPbPWs+ZYF1vXWt+1odn42Uyyqba5aku0Zdrm2q63vWSH2rnZZdtV2l20R+3d7YX26+07RxBGeI4QjageccNB1YHlUORQ6/DAUdcxwrHEsdHx5UiLkakjl408M/Kbk5tTntNWpzujtEaFjSoZ1TzqtbOdM8+50vmqC80l2GWWS5PLK1d7V4HrBtebbnS3SLf5bq1uX9093CXude49HhYe6R5VHjeY2swY5iLmWU+CZ4DnLM8jnh+93L0KvfZ5/eXt4J3rvdP72Wjr0YLRW0c/8jHz4fps9unyZfim+27y7fIz9eP6Vfs99Df35/tv83/KsmXlsHaxXgY4BUgCDga8Z3uxZ7CPB2KBIYFlgR1BWkGJQeuC7gebBWcF1wb3hbiFTAs5HkoIDQ9dFnqDY8ThcWo4fWEeYTPC2sJVw+PD14U/jLCLkEQ0R6KRYZErIu9GWUaJohqjQTQnekX0vRjrmEkxh2OJsTGxlbFP4kbFTY87E0+PnxC/M/5dQkDCkoQ7iTaJ0sTWJPWktKSapPfJgcnLk7vGjBwzY8yFFIMUYUpTKik1KXVbav/YoLGrxnanuaWVpl0fZz1uyrhz4w3G540/OkF9AnfC/nRCenL6zvQv3GhuNbc/g5NRldHHY/NW817w/fkr+T0CH8FywdNMn8zlmc+yfLJWZPVk+2VXZPcK2cJ1wlc5oTkbc97nRuduzx3IS86rzyfnp+cfEmmJckVtE40nTpnYKbYXl4q7JnlNWjWpTxIu2VaAFIwraCrUhj/y7VIb6S/SB0W+RZVFHyYnTd4/RXOKaEr7VLupC6c+LQ4u/m0aPo03rXW66fQ50x/MYM3YPBOZmTGzdZb5rHmzumeHzN4xhzond87vJU4ly0vezk2e2zzPaN7seY9+CfmltlStVFJ6Y773/I0L8AXCBR0LXRauXfitjF92vtypvKL8yyLeovO/jvp1za8DizMXdyxxX7JhKXGpaOn1ZX7LdizXXF68/NGKyBUNKxkry1a+XTVh1bkK14qNq6mrpau71kSsaVprsXbp2i/rstddqwyorK8yrFpY9X49f/3lDf4b6jYabSzf+GmTcNPNzSGbG6qtqiu2ELcUbXmyNWnrmd+Yv9VsM9hWvu3rdtH2rh1xO9pqPGpqdhruXFKL1kpre3al7bq0O3B3U51D3eZ63fryPWCPdM/zvel7r+8L39e6n7m/7oDlgaqD9INlDUjD1Ia+xuzGrqaUps5DYYdam72bDx52PLz9iOmRyqM6R5ccox6bd2ygpbil/7j4eO+JrBOPWie03jk55uTVtti2jlPhp86eDj598gzrTMtZn7NHznmdO3Seeb7xgvuFhna39oO/u/1+sMO9o+Gix8WmS56XmjtHdx677Hf5xJXAK6evcq5euBZ1rfN64vWbN9JudN3k33x2K+/Wq9tFtz/fmX2XcLfsnsa9ivuG96v/sP2jvsu96+iDwAftD+Mf3nnEe/TiccHjL93zntCeVDw1eVrzzPnZkZ7gnkvPxz7vfiF+8bm39E/NP6te2rw88Jf/X+19Y/q6X0leDbxe9Eb/zfa3rm9b+2P677/Lf/f5fdkH/Q87PjI/nvmU/Onp58lfSF/WfLX92vwt/NvdgfyBATFXwpX/CmCwopmZALzeDgAtBQA6PJ9RxyrOf/KCKM6scgT+E1acEeXFHYA6+P8e2wv/bm4AsGcrPH5BffU0AGJoACR4AtTFZagOntXk50pZIcJzwKaQrxn5GeDfFMWZ84e4f26BTNUV/Nz+C7EifFdeT1v1AAAAbGVYSWZNTQAqAAAACAAEARoABQAAAAEAAAA+ARsABQAAAAEAAABGASgAAwAAAAEAAgAAh2kABAAAAAEAAABOAAAAAAAAAJAAAAABAAAAkAAAAAEAAqACAAQAAAABAAAAXqADAAQAAAABAAAASgAAAAAwvtL8AAAACXBIWXMAABYlAAAWJQFJUiTwAAAGi0lEQVR4Ae2dXUgUXxTAjx+lpRImZmCGWWiRggWhvokP4kP0EvpgZFRE+aBUIL36IgX6IIlGmqEpSCJZkYpGGglhaAU9iGVppGaaKaampnn+92z+bT/u7KyzM7s7O/fAhZlzd+/d+c2Ze8/cj7M+yASEOEXg58+f8P79e5icnIS5uTmbND8/D35+fjA1NbVRj//GkTiwS4Dsc3h4GAYGBkyQCfT/aXx83O53KTM2NhY+fPiw8TkBfgOF7cHg4CB0dnaa0vPnz00WbfspZRoB3ozb169f4enTpybQXV1dMDIyYpar7qHhwVP7++DBA7h37x4Q7LW1NXUJS5RmSPAEl5oQgk3QFxYWJPBop/Yxklfz7ds3uHnzJtTV1cHo6KjqVH19fSE4ONiUQkJCwDzt2bPH4gYbwuK/fPkCxcXFUF1dDYuLi04D37VrF8TFxdmkmJgY8Pd3EClZvLcK80rw/PnzuHXrVnpXUZR8fHwwPj4e8/Pzsbm5GZkvrgouUKUUDyukv78fs7Ozkb20KIK9b98+vHDhAjY0NCBrnjS5Oq8Cz94asaCgALds2bJp4Dt37sRLly7hy5cvkXW+msA2L9RrwDc1NWFUVNSmgNMNOnHiBNJ3l5aWzLlofqx78NSOZ2RkbAo46xzx+vXryMZWNAcsVYFuwf/+/RsLCwsxMDDQYeiRkZFYWlqKzG+X4uEyvS7Bf/78GZOTkx0Gztw8vH37tsubE3t3UXfgHz16hNQROuIehoeH4507d3BlZcUeA7fk6Qb88vIyXrlyBcmvloPO3iDx4sWL+OPHD7dAdaRSXYBn4+CYlJQkC5xuyNGjR/HVq1eOXLtbP+Px4F+8eIGhoaGy0Hfs2IFlZWW4urrqVqCOVu7R4B8+fIjbtm2ThU5PAz0VehKPBV9VVSX7yk/t/dWrV5FcS72JR4IvKiqS7UTJsyEPR6/iUeD//PljGgWU81pSUlKQfHk9i8eAp4Gps2fPyrbnp06d0mXTYm0kHgOeRhXlLP3y5csuGTm0hqTFuUeALykpsQudOtEbN25ocf1uK9Pt4NmEs92OlE2l4d27d90GSKuK3Qq+tbXV7qRFQEAAPn78WKtrd2u5bgPf09ODQUFBkk0MTdvRBIW3ilvA0wQEjY3b60xv3brlrcxN1+Vy8OSry80Y0QSHt4vLwdOUmz1Lz83N9Xbmrrf47u5uJC9FCvzJkyeRnggjiMuW8NGi/CNHjkgunTt06BD09vYC63DZffF+8XXFJTILhjNnzkhC3759OzQ2NhoGuom5Kx7rmpoayeaF/Qhkaxpd8TM8qg7NO9fp6WmkdSwEmJdOnz7tUUBc9WM0B09eCg846Q4ePIi07M6Iomnn2tfXB2xajrvLgpYzU2eamJjI7oHxRLPOlXZdMGvnQifMbNmzYaGbzEyrx7yiokKyiaHhArY3VKuqdVGuJm387Oys3dVe9+/f1wUcLX+kJk1NeXk5MG+G23Cnp6dDVlYWN89IStU711+/fkF0dDR8//7dhiMbX4d3796ZdjnbZBpMobrFV1ZWcqET17y8PAF93cBUt3jaVjg2NmZjv2xFGAwNDcHu3btt8oyoUNXinz17xoVOYNnuOwHdzMJUtfjjx49DS0uLWfF/D9l2R/j48SOwPUo2eUZVqGbxnz59gra2Ni7HnJwcAd2KjGrg2VYX7lsqBci5du2aVbXiVBXwbKsL1NbWcmlmZmbCgQMHuHlGVqoCnq2PkQyic+7cOSPzlbx2VcDX19dzK2BjMpCWlsbNM7rSafAU/OzJkydcjmxlrykIGjfT4EqnwRN0th2di5G8GSF8Ak6DZ6FEuCWz3Xdw+PBhbp5QAjgFnu09gvb2di5HYe1cLBtKp8CzECNAwS55whYn8dRCt07AKfAdHR1ckBTckgbLhEgTcAo8hQvkiXAheVQsdYrBU7zG169fW5a2fibAc7FYKBWDp6UZNFRgLWy/EqSmplqrxbkVAcXg2Y4Oq6L+niYkJAALV8LNE8p/BBSDf/Pmzb9SzI5EM2MGw86hYvBv377lFnvs2DGuXigtCSgCT7F4WbQMy5LWzygCqRB5AorAU/B6WqLHEwGeR8VWpwg8BbTnCc02UVBjIfIEFIGn+VWe7N27l6cWOg4BReApOjVP9u/fz1MLHYeAIvBSf+Eglm9wCEuoFIGfmJjgFkdTfUIcI6AIPP3fEU8iIiJ4aqHjEFAEfmZmhlMUQFhYGFcvlLYE/gOaraFChBfiTAAAAABJRU5ErkJggg==;direction=west;" vertex="1" parent="1">
          <mxGeometry x="151" y="309.67999999999995" width="36" height="28.34" as="geometry" />
        </mxCell>
        <mxCell id="JMQ2ScD6qQ5YHZ6In4Vd-25" value="" style="endArrow=none;html=1;rounded=0;strokeWidth=2.3;" edge="1" parent="1">
          <mxGeometry width="50" height="50" relative="1" as="geometry">
            <mxPoint x="120" y="337.02" as="sourcePoint" />
            <mxPoint x="151" y="337.02" as="targetPoint" />
          </mxGeometry>
        </mxCell>
        <mxCell id="JMQ2ScD6qQ5YHZ6In4Vd-26" value="" style="shape=image;verticalLabelPosition=bottom;labelBackgroundColor=default;verticalAlign=top;aspect=fixed;imageAspect=0;image=data:image/png,iVBORw0KGgoAAAANSUhEUgAAAF4AAABKCAYAAAAylePjAAAMP2lDQ1BJQ0MgUHJvZmlsZQAASImVVwdYU8kWnltSIbQAAlJCb4JIDSAlhBZ6RxCVkAQIJcZAULGjiwquXSxgQ1dFFKyAWFDEzqLY+2JBRVkXC3blTQrouq98b75v7vz3nzP/OXPuzL13AFA/zhWL81ANAPJFhZK4kADGmJRUBukpIAN9oAJMAYXLKxCzYmIiACyD7d/Lu+sAkbVXHGRa/+z/r0WTLyjgAYDEQJzBL+DlQ3wAALyKJ5YUAkCU8eaTC8UyDCvQlsAAIV4gw1kKXCXDGQq8R26TEMeGuA0AsiqXK8kCQO0S5BlFvCyoodYHsZOILxQBoM6A2Dc/fyIf4nSIbaCNGGKZPjPjB52sv2lmDGlyuVlDWDEXeSEHCgvEedyp/2c6/nfJz5MO+rCCVTVbEhonmzPM283cieEyrApxrygjKhpiLYg/CPlye4hRarY0NFFhjxryCtgwZ0AXYic+NzAcYkOIg0V5URFKPiNTGMyBGK4QdIqwkJMAsR7ECwQFQfFKm02SiXFKX2hDpoTNUvJnuRK5X5mv+9LcRJZS/3W2gKPUx9SKsxOSIaZCbFEkTIqCWA1ix4Lc+HClzejibHbUoI1EGieL3wLiOIEoJEChjxVlSoLjlPZl+QWD88U2ZQs5UUq8rzA7IVSRH6yNx5XHD+eCXRKIWImDOoKCMRGDc+ELAoMUc8eeCUSJ8UqdD+LCgDjFWJwqzotR2uNmgrwQGW8GsWtBUbxyLJ5UCBekQh/PFBfGJCjixItzuGExinjwpSACsEEgYAAprBlgIsgBwo7exl54p+gJBlwgAVlAAByUzOCIZHmPCF7jQTH4EyIBKBgaFyDvFYAiyH8dYhVXB5Ap7y2Sj8gFTyDOB+EgD95L5aNEQ96SwGPICP/hnQsrD8abB6us/9/zg+x3hgWZCCUjHfTIUB+0JAYRA4mhxGCiLW6A++LeeAS8+sPqjDNxz8F5fLcnPCF0Eh4SrhG6CLcmCEskP0UZCbqgfrAyFxk/5gK3gppueADuA9WhMq6LGwAH3BX6YeF+0LMbZNnKuGVZYfyk/bcZ/PA0lHYUJwpKGUbxp9j8PFLNTs1tSEWW6x/zo4g1Yyjf7KGen/2zf8g+H7bhP1tiC7D92BnsBHYOO4I1AgbWgjVh7dhRGR5aXY/lq2vQW5w8nlyoI/yHv8EnK8tkgVOtU4/TF0VfoWCK7B0N2BPFUyXCrOxCBgt+EQQMjojnOILh7OTsAoDs+6J4fb2JlX83EN3279zcPwDwaRkYGDj8nQtrAWCvB9z+h75zNkz46VAB4OwhnlRSpOBw2YUA3xLqcKfpA2NgDmzgfJyBO/AG/iAIhIFokABSwHgYfTZc5xIwGUwHc0ApKAdLwSqwDmwEW8AOsBvsA43gCDgBToML4BK4Bu7A1dMNXoA+8A58RhCEhNAQOqKPmCCWiD3ijDARXyQIiUDikBQkHclCRIgUmY7MRcqR5cg6ZDNSg+xFDiEnkHNIJ3ILeYD0IK+RTyiGqqLaqBFqhY5EmSgLDUcT0HFoFjoJLUbnoYvRNWg1ugttQE+gF9BraBf6Au3HAKaC6WKmmAPGxNhYNJaKZWISbCZWhlVg1Vgd1gyf8xWsC+vFPuJEnI4zcAe4gkPxRJyHT8Jn4ovwdfgOvAFvw6/gD/A+/BuBRjAk2BO8CBzCGEIWYTKhlFBB2EY4SDgF91I34R2RSNQlWhM94F5MIeYQpxEXEdcT64nHiZ3ER8R+EomkT7In+ZCiSVxSIamUtJa0i9RCukzqJn0gq5BNyM7kYHIqWUQuIVeQd5KPkS+Tn5I/UzQolhQvSjSFT5lKWULZSmmmXKR0Uz5TNanWVB9qAjWHOoe6hlpHPUW9S32joqJipuKpEqsiVJmtskZlj8pZlQcqH1W1VO1U2appqlLVxarbVY+r3lJ9Q6PRrGj+tFRaIW0xrYZ2knaf9kGNruaoxlHjq81Sq1RrULus9lKdom6pzlIfr16sXqG+X/2ieq8GRcNKg63B1ZipUalxSOOGRr8mXXOUZrRmvuYizZ2a5zSfaZG0rLSCtPha87S2aJ3UekTH6OZ0Np1Hn0vfSj9F79Ymaltrc7RztMu1d2t3aPfpaOm46iTpTNGp1Dmq06WL6VrpcnTzdJfo7tO9rvtpmNEw1jDBsIXD6oZdHvZeb7iev55Ar0yvXu+a3id9hn6Qfq7+Mv1G/XsGuIGdQazBZIMNBqcMeodrD/cezhteNnzf8NuGqKGdYZzhNMMthu2G/UbGRiFGYqO1RieNeo11jf2Nc4xXGh8z7jGhm/iaCE1WmrSYPGfoMFiMPMYaRhujz9TQNNRUarrZtMP0s5m1WaJZiVm92T1zqjnTPNN8pXmreZ+FiUWkxXSLWovblhRLpmW25WrLM5bvraytkq3mWzVaPbPWs+ZYF1vXWt+1odn42Uyyqba5aku0Zdrm2q63vWSH2rnZZdtV2l20R+3d7YX26+07RxBGeI4QjageccNB1YHlUORQ6/DAUdcxwrHEsdHx5UiLkakjl408M/Kbk5tTntNWpzujtEaFjSoZ1TzqtbOdM8+50vmqC80l2GWWS5PLK1d7V4HrBtebbnS3SLf5bq1uX9093CXude49HhYe6R5VHjeY2swY5iLmWU+CZ4DnLM8jnh+93L0KvfZ5/eXt4J3rvdP72Wjr0YLRW0c/8jHz4fps9unyZfim+27y7fIz9eP6Vfs99Df35/tv83/KsmXlsHaxXgY4BUgCDga8Z3uxZ7CPB2KBIYFlgR1BWkGJQeuC7gebBWcF1wb3hbiFTAs5HkoIDQ9dFnqDY8ThcWo4fWEeYTPC2sJVw+PD14U/jLCLkEQ0R6KRYZErIu9GWUaJohqjQTQnekX0vRjrmEkxh2OJsTGxlbFP4kbFTY87E0+PnxC/M/5dQkDCkoQ7iTaJ0sTWJPWktKSapPfJgcnLk7vGjBwzY8yFFIMUYUpTKik1KXVbav/YoLGrxnanuaWVpl0fZz1uyrhz4w3G540/OkF9AnfC/nRCenL6zvQv3GhuNbc/g5NRldHHY/NW817w/fkr+T0CH8FywdNMn8zlmc+yfLJWZPVk+2VXZPcK2cJ1wlc5oTkbc97nRuduzx3IS86rzyfnp+cfEmmJckVtE40nTpnYKbYXl4q7JnlNWjWpTxIu2VaAFIwraCrUhj/y7VIb6S/SB0W+RZVFHyYnTd4/RXOKaEr7VLupC6c+LQ4u/m0aPo03rXW66fQ50x/MYM3YPBOZmTGzdZb5rHmzumeHzN4xhzond87vJU4ly0vezk2e2zzPaN7seY9+CfmltlStVFJ6Y773/I0L8AXCBR0LXRauXfitjF92vtypvKL8yyLeovO/jvp1za8DizMXdyxxX7JhKXGpaOn1ZX7LdizXXF68/NGKyBUNKxkry1a+XTVh1bkK14qNq6mrpau71kSsaVprsXbp2i/rstddqwyorK8yrFpY9X49f/3lDf4b6jYabSzf+GmTcNPNzSGbG6qtqiu2ELcUbXmyNWnrmd+Yv9VsM9hWvu3rdtH2rh1xO9pqPGpqdhruXFKL1kpre3al7bq0O3B3U51D3eZ63fryPWCPdM/zvel7r+8L39e6n7m/7oDlgaqD9INlDUjD1Ia+xuzGrqaUps5DYYdam72bDx52PLz9iOmRyqM6R5ccox6bd2ygpbil/7j4eO+JrBOPWie03jk55uTVtti2jlPhp86eDj598gzrTMtZn7NHznmdO3Seeb7xgvuFhna39oO/u/1+sMO9o+Gix8WmS56XmjtHdx677Hf5xJXAK6evcq5euBZ1rfN64vWbN9JudN3k33x2K+/Wq9tFtz/fmX2XcLfsnsa9ivuG96v/sP2jvsu96+iDwAftD+Mf3nnEe/TiccHjL93zntCeVDw1eVrzzPnZkZ7gnkvPxz7vfiF+8bm39E/NP6te2rw88Jf/X+19Y/q6X0leDbxe9Eb/zfa3rm9b+2P677/Lf/f5fdkH/Q87PjI/nvmU/Onp58lfSF/WfLX92vwt/NvdgfyBATFXwpX/CmCwopmZALzeDgAtBQA6PJ9RxyrOf/KCKM6scgT+E1acEeXFHYA6+P8e2wv/bm4AsGcrPH5BffU0AGJoACR4AtTFZagOntXk50pZIcJzwKaQrxn5GeDfFMWZ84e4f26BTNUV/Nz+C7EifFdeT1v1AAAAbGVYSWZNTQAqAAAACAAEARoABQAAAAEAAAA+ARsABQAAAAEAAABGASgAAwAAAAEAAgAAh2kABAAAAAEAAABOAAAAAAAAAJAAAAABAAAAkAAAAAEAAqACAAQAAAABAAAAXqADAAQAAAABAAAASgAAAAAwvtL8AAAACXBIWXMAABYlAAAWJQFJUiTwAAAGi0lEQVR4Ae2dXUgUXxTAjx+lpRImZmCGWWiRggWhvokP4kP0EvpgZFRE+aBUIL36IgX6IIlGmqEpSCJZkYpGGglhaAU9iGVppGaaKaampnn+92z+bT/u7KyzM7s7O/fAhZlzd+/d+c2Ze8/cj7M+yASEOEXg58+f8P79e5icnIS5uTmbND8/D35+fjA1NbVRj//GkTiwS4Dsc3h4GAYGBkyQCfT/aXx83O53KTM2NhY+fPiw8TkBfgOF7cHg4CB0dnaa0vPnz00WbfspZRoB3ozb169f4enTpybQXV1dMDIyYpar7qHhwVP7++DBA7h37x4Q7LW1NXUJS5RmSPAEl5oQgk3QFxYWJPBop/Yxklfz7ds3uHnzJtTV1cHo6KjqVH19fSE4ONiUQkJCwDzt2bPH4gYbwuK/fPkCxcXFUF1dDYuLi04D37VrF8TFxdmkmJgY8Pd3EClZvLcK80rw/PnzuHXrVnpXUZR8fHwwPj4e8/Pzsbm5GZkvrgouUKUUDyukv78fs7Ozkb20KIK9b98+vHDhAjY0NCBrnjS5Oq8Cz94asaCgALds2bJp4Dt37sRLly7hy5cvkXW+msA2L9RrwDc1NWFUVNSmgNMNOnHiBNJ3l5aWzLlofqx78NSOZ2RkbAo46xzx+vXryMZWNAcsVYFuwf/+/RsLCwsxMDDQYeiRkZFYWlqKzG+X4uEyvS7Bf/78GZOTkx0Gztw8vH37tsubE3t3UXfgHz16hNQROuIehoeH4507d3BlZcUeA7fk6Qb88vIyXrlyBcmvloPO3iDx4sWL+OPHD7dAdaRSXYBn4+CYlJQkC5xuyNGjR/HVq1eOXLtbP+Px4F+8eIGhoaGy0Hfs2IFlZWW4urrqVqCOVu7R4B8+fIjbtm2ThU5PAz0VehKPBV9VVSX7yk/t/dWrV5FcS72JR4IvKiqS7UTJsyEPR6/iUeD//PljGgWU81pSUlKQfHk9i8eAp4Gps2fPyrbnp06d0mXTYm0kHgOeRhXlLP3y5csuGTm0hqTFuUeALykpsQudOtEbN25ocf1uK9Pt4NmEs92OlE2l4d27d90GSKuK3Qq+tbXV7qRFQEAAPn78WKtrd2u5bgPf09ODQUFBkk0MTdvRBIW3ilvA0wQEjY3b60xv3brlrcxN1+Vy8OSry80Y0QSHt4vLwdOUmz1Lz83N9Xbmrrf47u5uJC9FCvzJkyeRnggjiMuW8NGi/CNHjkgunTt06BD09vYC63DZffF+8XXFJTILhjNnzkhC3759OzQ2NhoGuom5Kx7rmpoayeaF/Qhkaxpd8TM8qg7NO9fp6WmkdSwEmJdOnz7tUUBc9WM0B09eCg846Q4ePIi07M6Iomnn2tfXB2xajrvLgpYzU2eamJjI7oHxRLPOlXZdMGvnQifMbNmzYaGbzEyrx7yiokKyiaHhArY3VKuqdVGuJm387Oys3dVe9+/f1wUcLX+kJk1NeXk5MG+G23Cnp6dDVlYWN89IStU711+/fkF0dDR8//7dhiMbX4d3796ZdjnbZBpMobrFV1ZWcqET17y8PAF93cBUt3jaVjg2NmZjv2xFGAwNDcHu3btt8oyoUNXinz17xoVOYNnuOwHdzMJUtfjjx49DS0uLWfF/D9l2R/j48SOwPUo2eUZVqGbxnz59gra2Ni7HnJwcAd2KjGrg2VYX7lsqBci5du2aVbXiVBXwbKsL1NbWcmlmZmbCgQMHuHlGVqoCnq2PkQyic+7cOSPzlbx2VcDX19dzK2BjMpCWlsbNM7rSafAU/OzJkydcjmxlrykIGjfT4EqnwRN0th2di5G8GSF8Ak6DZ6FEuCWz3Xdw+PBhbp5QAjgFnu09gvb2di5HYe1cLBtKp8CzECNAwS55whYn8dRCt07AKfAdHR1ckBTckgbLhEgTcAo8hQvkiXAheVQsdYrBU7zG169fW5a2fibAc7FYKBWDp6UZNFRgLWy/EqSmplqrxbkVAcXg2Y4Oq6L+niYkJAALV8LNE8p/BBSDf/Pmzb9SzI5EM2MGw86hYvBv377lFnvs2DGuXigtCSgCT7F4WbQMy5LWzygCqRB5AorAU/B6WqLHEwGeR8VWpwg8BbTnCc02UVBjIfIEFIGn+VWe7N27l6cWOg4BReApOjVP9u/fz1MLHYeAIvBSf+Eglm9wCEuoFIGfmJjgFkdTfUIcI6AIPP3fEU8iIiJ4aqHjEFAEfmZmhlMUQFhYGFcvlLYE/gOaraFChBfiTAAAAABJRU5ErkJggg==;direction=west;" vertex="1" parent="1">
          <mxGeometry x="91" y="338.02" width="36" height="28.34" as="geometry" />
        </mxCell>
        <mxCell id="JMQ2ScD6qQ5YHZ6In4Vd-27" value="" style="endArrow=none;html=1;rounded=0;strokeWidth=2.3;" edge="1" parent="1">
          <mxGeometry width="50" height="50" relative="1" as="geometry">
            <mxPoint x="60" y="365.36" as="sourcePoint" />
            <mxPoint x="91" y="365.36" as="targetPoint" />
          </mxGeometry>
        </mxCell>
        <mxCell id="JMQ2ScD6qQ5YHZ6In4Vd-28" value="&lt;font style=&quot;font-size: 16px;&quot;&gt;V&lt;sub style=&quot;font-size: 16px;&quot;&gt;ds&lt;/sub&gt;&lt;/font&gt;" style="text;html=1;strokeColor=none;fillColor=none;align=center;verticalAlign=middle;whiteSpace=wrap;rounded=0;fontFamily=Times New Roman;fontSize=16;" vertex="1" parent="1">
          <mxGeometry x="510" y="270" width="60" height="30" as="geometry" />
        </mxCell>
        <mxCell id="JMQ2ScD6qQ5YHZ6In4Vd-29" value="&lt;font style=&quot;font-size: 16px;&quot;&gt;&lt;span style=&quot;font-size: 16px;&quot;&gt;I&lt;sub&gt;ds&lt;/sub&gt;&lt;/span&gt;&lt;/font&gt;" style="text;html=1;strokeColor=none;fillColor=none;align=center;verticalAlign=middle;whiteSpace=wrap;rounded=0;fontFamily=Times New Roman;fontSize=16;" vertex="1" parent="1">
          <mxGeometry x="270" y="110" width="60" height="30" as="geometry" />
        </mxCell>
      </root>
    </mxGraphModel>
  </diagram>
</mxfile>
